<svg width="25" height="24" viewBox="0 0 25 24" fill="none" xmlns="http://www.w3.org/2000/svg">
<path d="M18.2028 11.3601L6.89109 4.44744C6.7774 4.37796 6.64725 4.34003 6.51403 4.33753C6.38082 4.33504 6.24934 4.36808 6.13313 4.43326C6.01692 4.49843 5.92017 4.59339 5.85283 4.70836C5.78549 4.82333 5.75 4.95416 5.75 5.0874V18.9128C5.75 19.0461 5.78549 19.1769 5.85283 19.2919C5.92017 19.4068 6.01692 19.5018 6.13313 19.567C6.24934 19.6321 6.38082 19.6652 6.51403 19.6627C6.64725 19.6602 6.7774 19.6223 6.89109 19.5528L18.2028 12.6401C18.3124 12.5731 18.403 12.479 18.4658 12.367C18.5287 12.2549 18.5617 12.1286 18.5617 12.0001C18.5617 11.8716 18.5287 11.7453 18.4658 11.6332C18.403 11.5212 18.3124 11.4271 18.2028 11.3601Z" fill="white" stroke="white" stroke-width="2" stroke-linecap="round" stroke-linejoin="round"/>
<path d="M19.25 3.75V20.25" stroke="white" stroke-width="2" stroke-linecap="round" stroke-linejoin="round"/>
</svg>
