<svg width="20" height="20" viewBox="0 0 20 20" fill="none" xmlns="http://www.w3.org/2000/svg">
<path d="M2.5 5.625H4.30191C5.09778 5.625 5.88216 5.81498 6.58982 6.17916C7.29748 6.54334 7.90799 7.07118 8.37058 7.71881L11.6294 12.2812C12.092 12.9288 12.7025 13.4567 13.4102 13.8208C14.1178 14.185 14.9022 14.375 15.6981 14.375H18.125" stroke="white" stroke-width="2" stroke-linecap="round" stroke-linejoin="round"/>
<path d="M16.25 3.75L18.125 5.625L16.25 7.5" stroke="white" stroke-width="2" stroke-linecap="round" stroke-linejoin="round"/>
<path d="M16.25 12.5L18.125 14.375L16.25 16.25" stroke="white" stroke-width="2" stroke-linecap="round" stroke-linejoin="round"/>
<path d="M11.5361 7.84939L11.6294 7.71881C12.092 7.07118 12.7025 6.54334 13.4102 6.17916C14.1178 5.81499 14.9022 5.625 15.6981 5.625H18.125" stroke="white" stroke-width="2" stroke-linecap="round" stroke-linejoin="round"/>
<path d="M2.5 14.375H4.30191C5.09778 14.375 5.88216 14.185 6.58982 13.8209C7.29748 13.4567 7.90799 12.9288 8.37058 12.2812L8.46385 12.1506" stroke="white" stroke-width="2" stroke-linecap="round" stroke-linejoin="round"/>
</svg>
