<svg width="25" height="24" viewBox="0 0 25 24" fill="none" xmlns="http://www.w3.org/2000/svg">
<path d="M6.79739 11.3601L18.1091 4.44744C18.2228 4.37796 18.3529 4.34003 18.4861 4.33753C18.6194 4.33504 18.7508 4.36808 18.867 4.43326C18.9833 4.49843 19.08 4.59339 19.1473 4.70836C19.2147 4.82333 19.2502 4.95416 19.2502 5.0874V18.9128C19.2502 19.0461 19.2147 19.1769 19.1473 19.2919C19.08 19.4068 18.9833 19.5018 18.867 19.567C18.7508 19.6321 18.6194 19.6652 18.4861 19.6627C18.3529 19.6602 18.2228 19.6223 18.1091 19.5528L6.79739 12.6401C6.68776 12.5731 6.59718 12.479 6.53433 12.367C6.47148 12.2549 6.43848 12.1286 6.43848 12.0001C6.43848 11.8716 6.47148 11.7453 6.53433 11.6332C6.59718 11.5212 6.68776 11.4271 6.79739 11.3601Z" fill="white" stroke="white" stroke-width="2" stroke-linecap="round" stroke-linejoin="round"/>
<path d="M5.75 3.75V20.25" stroke="white" stroke-width="2" stroke-linecap="round" stroke-linejoin="round"/>
</svg>
