<svg width="31" height="32" viewBox="0 0 31 32" fill="none" xmlns="http://www.w3.org/2000/svg">
<g opacity="0.5" filter="url(#filter0_bd_985:20367)">
<path d="M17.7495 21.9994V17.4993C17.7495 17.3004 17.6704 17.1096 17.5298 16.969C17.3891 16.8283 17.1984 16.7493 16.9995 16.7493H13.9995C13.8005 16.7493 13.6098 16.8283 13.4691 16.969C13.3285 17.1096 13.2495 17.3004 13.2495 17.4993V21.9994C13.2495 22.1983 13.1704 22.389 13.0298 22.5297C12.8892 22.6703 12.6984 22.7494 12.4995 22.7494L8.00009 22.75C7.90159 22.75 7.80406 22.7306 7.71305 22.6929C7.62205 22.6552 7.53936 22.6 7.4697 22.5304C7.40005 22.4607 7.3448 22.378 7.3071 22.287C7.2694 22.196 7.25 22.0985 7.25 22V13.3318C7.25 13.2273 7.27183 13.124 7.3141 13.0284C7.35637 12.9329 7.41814 12.8472 7.49545 12.7769L14.9949 5.95803C15.133 5.8325 15.3129 5.76295 15.4995 5.76294C15.686 5.76293 15.8659 5.83248 16.004 5.95799L23.5045 12.7769C23.5818 12.8472 23.6436 12.9329 23.6859 13.0284C23.7282 13.124 23.75 13.2274 23.75 13.3319V22C23.75 22.0985 23.7306 22.196 23.6929 22.287C23.6552 22.378 23.6 22.4607 23.5303 22.5304C23.4606 22.6 23.378 22.6552 23.2869 22.6929C23.1959 22.7306 23.0984 22.75 22.9999 22.75L18.4994 22.7494C18.3005 22.7494 18.1097 22.6703 17.9691 22.5297C17.8285 22.389 17.7494 22.1983 17.7495 21.9994Z" fill="#F3BF59" fill-opacity="0.1" stroke="white" stroke-width="2" stroke-linecap="round" stroke-linejoin="round"/>
</g>
<defs>
<filter id="filter0_bd_985:20367" x="-16.5" y="-17.5" width="64" height="64" filterUnits="userSpaceOnUse" color-interpolation-filters="sRGB">
<feFlood flood-opacity="0" result="BackgroundImageFix"/>
<feGaussianBlur in="BackgroundImage" stdDeviation="10"/>
<feComposite in2="SourceAlpha" operator="in" result="effect1_backgroundBlur_985:20367"/>
<feColorMatrix in="SourceAlpha" type="matrix" values="0 0 0 0 0 0 0 0 0 0 0 0 0 0 0 0 0 0 127 0" result="hardAlpha"/>
<feOffset dy="2"/>
<feGaussianBlur stdDeviation="3"/>
<feColorMatrix type="matrix" values="0 0 0 0 0 0 0 0 0 0 0 0 0 0 0 0 0 0 0.2 0"/>
<feBlend mode="normal" in2="effect1_backgroundBlur_985:20367" result="effect2_dropShadow_985:20367"/>
<feBlend mode="normal" in="SourceGraphic" in2="effect2_dropShadow_985:20367" result="shape"/>
</filter>
</defs>
</svg>
